<svg xmlns="http://www.w3.org/2000/svg" width="18" height="18" viewBox="0 0 48 48">
  <path fill="#fbc02d" d="M43.6 20.5h-1.9V20H24v8h11.3c-1.7 4.7-6.1 8-11.3 8a12 12 0 1 1 0-24c3.1 0 5.9 1.2 8 3.1l6-6C34.4 6.5 29.5 4 24 4 12.9 4 4 12.9 4 24s8.9 20 20 20 20-8.9 20-20c0-1.2-.1-2.1-.4-3.5z"/>
  <path fill="#e53935" d="M6.3 14.7 12.9 19.3a11.9 11.9 0 0 1 11.1-7.3c3.1 0 5.9 1.2 8 3.1l6-6C34.4 6.5 29.5 4 24 4a20 20 0 0 0-17.7 10.7z"/>
  <path fill="#4caf50" d="M24 44c5.4 0 10.3-2.1 13.9-5.5l-6.4-5.3a12 12 0 0 1-17.4-6H6.3A20 20 0 0 0 24 44z"/>
  <path fill="#1565c0" d="M43.6 20.5h-1.9V20H24v8h11.3a12 12 0 0 1-4.2 5.6l6.4 5.3c-1.8 1.6 6.1-4.4 6.1-14.4 0-1.2-.1-2.1-.4-3.5z"/>
</svg>